<svg xmlns="http://www.w3.org/2000/svg" xmlns:xlink="http://www.w3.org/1999/xlink" style="vertical-align:-.755ex" width="17.045ex" height="3.134ex" viewBox="0 -1024.6 7339 1349.5"><defs><path id="a" stroke-width="1" d="M33 157q0 101 76 192t171 92q51 0 90-49 16 30 46 30 13 0 23-8t10-20q0-13-37-160T374 68q0-25 7-33t21-9q9 1 20 9 21 20 41 96 6 20 10 21 2 1 10 1h4q19 0 19-9 0-6-5-27t-20-54-32-50Q436 0 417-8q-8-2-24-2-34 0-57 15t-30 31l-6 15q-1 1-4-1l-4-4q-59-56-120-56-55 0-97 40T33 157zm318 171q0 6-5 22t-23 35-46 20q-35 0-67-31t-50-81q-29-79-41-164v-11q0-8-1-12 0-45 18-62t43-18q38 0 75 33t44 51q2 4 27 107t26 111z"/><path id="b" stroke-width="1" d="M92 210q0-34 14-61t36-41 43-23 35-13l15-2 2 1 13 41q18 58 33 99t39 88 48 76 59 48 73 19q45 0 80-32t36-108q0-78-43-150T457 35 299-10q-26 0-26-2l-7-36q-6-35-14-77t-11-54q-5-24-26-33-11-6-25-6-31 3-31 33 0 10 55 183l-5 2q-5 2-14 5t-22 9-26 14-27 18-26 25-23 32-15 39-6 48q0 48 26 121t73 120h13q21 0 21-8 0-6-8-14-41-48-61-109t-22-90zm482 68q0 42-24 66t-64 25q-49 0-92-40t-71-111q-14-34-28-109l-9-45q18-2 20-2 117 0 192 69t76 147z"/><path id="c" stroke-width="1" d="M94 250q0 69 10 131t23 107 37 88 38 67 42 52 33 34 25 21h17q14 0 14-9 0-3-17-21t-41-53-49-86-42-138-17-193 17-192 41-139 49-86 42-53 17-21q0-9-15-9h-16l-28 24q-94 85-137 212T94 250z"/><path id="d" stroke-width="1" d="M21 287q1 6 3 16t12 38 20 47 33 37 46 17q36 0 60-18t30-34 6-21q0-2 1-2l11 11q61 64 139 64 54 0 87-27t34-79-38-157-38-127q0-26 17-26 6 0 9 1 29 5 52 38t35 80q2 8 20 8 20 0 20-8 0-1-4-15-8-29-22-57t-46-56-69-27q-47 0-68 27t-21 56q0 19 36 120t37 152q0 59-44 59h-5q-86 0-145-101l-7-12-33-134Q156 26 151 16q-13-27-43-27-13 0-21 6T76 7t-2 10q0 13 38 163t40 163q1 5 1 23 0 39-24 39-38 0-63-100-6-20-6-21-2-6-19-6H27q-6 6-6 9z"/><path id="e" stroke-width="1" d="M60 749l4 1h22l28-24q94-85 137-212t43-264q0-68-10-131T261 12t-37-88-38-67-41-51-32-33-23-19l-4-4H63q-3 0-5 3t-3 9q1 1 11 13Q221-64 221 250T66 725q-10 12-11 13 0 8 5 11z"/><path id="f" stroke-width="1" d="M56 444q0 13 14 20h637q15-8 15-20 0-14-16-20H72q-16 5-16 20zm0-207v13l14 20h637q15-8 15-20t-15-20H70q-14 7-14 20zm0-181q0 15 16 20h634q16-6 16-20 0-12-15-20H70q-14 7-14 20z"/><path id="g" stroke-width="1" d="M213 578l-13-5q-14-5-40-10t-58-7H83v46h19q47 2 87 15t56 24 28 22q2 3 12 3 9 0 17-6V361l1-300q7-7 12-9t24-4 62-2h26V0h-11q-21 3-159 3-136 0-157-3H88v46h64q16 0 25 1t16 3 8 2 6 5 6 4v517z"/><path id="h" stroke-width="1" d="M41 46h14q39 0 47 14v62q0 17 1 39t0 42v66q0 35-1 59v23q-3 19-14 25t-45 9H25v23q0 23 2 23l10 1q10 1 28 2t37 2q17 1 36 2t29 3 11 1h3v-40q0-38 1-38t5 5 12 15 19 18 29 19 38 16q20 5 51 5 15 0 28-2t23-6 19-8 15-9 11-11 9-11 7-11 4-10 3-8l2-5 3 4 6 8q3 4 9 11t13 13 15 13 20 12 23 10 26 7 31 3q126 0 137-113 1-7 1-139v-86q0-38 2-45t11-10q21-3 49-3h16V0h-8l-23 1q-24 1-51 1t-38 1Q596 3 587 0h-8v46h16q61 0 61 16 1 2 1 138-1 135-2 143-6 28-20 42t-24 17-26 2q-45 0-79-34-27-27-34-55t-8-83V108q0-30 1-40t3-13 9-6q21-3 49-3h16V0h-8l-24 1q-23 1-50 1t-38 1Q319 3 310 0h-8v46h16q61 0 61 16 1 2 1 138-1 135-2 143-6 28-20 42t-24 17-26 2q-45 0-79-34-27-27-34-55t-8-83V108q0-30 1-40t3-13 9-6q21-3 49-3h16V0h-8l-23 1q-24 1-51 1t-38 1Q42 3 33 0h-8v46h16z"/><path id="i" stroke-width="1" d="M28 214q0 95 65 164t157 70q90 0 155-68t66-165q0-95-64-160T250-10q-97 0-159 67T28 214zM250 30q122 0 122 163v57q0 22-1 38t-7 38-16 36-31 28-49 20q-5 1-16 1-30 0-57-12-43-22-56-61t-13-92v-20q0-96 19-135 32-61 105-61z"/><path id="j" stroke-width="1" d="M376 495v40q0 24 1 33 0 45-10 56t-51 13h-18v23q0 23 2 23l10 1q10 1 29 2t37 2 37 2 30 3 11 1h3V390q0-306 1-309 3-20 14-26t45-9h18V0q-2 0-76-5t-79-6h-7v55l-8-7q-58-48-130-48-77 0-139 61T34 215q0 100 63 163t147 64q75 0 132-49v102zm-3-153q-45 63-113 63-49 0-87-36-27-28-34-64t-8-94q0-56 7-91t35-61q30-33 78-33 71 0 122 77v239z"/></defs><g fill="currentColor" stroke="currentColor" stroke-width="0" transform="scale(1 -1)"><use xlink:href="#a"/><g transform="matrix(.707 0 0 .707 529 412)"><use xlink:href="#b"/><use x="654" xlink:href="#c"/><use x="1044" xlink:href="#d"/><use x="1644" xlink:href="#e"/></g><use x="2345" xlink:href="#f"/><use x="3401" xlink:href="#g"/><use x="3902" xlink:href="#c"/><g transform="translate(4291)"><use xlink:href="#h"/><use x="833" xlink:href="#i"/><use x="1334" xlink:href="#j"/></g><use x="6348" xlink:href="#d"/><use x="6949" xlink:href="#e"/></g></svg>